<svg width="104" height="104" viewBox="0 0 104 104" fill="none" xmlns="http://www.w3.org/2000/svg">
<circle cx="52" cy="52" r="50.5" fill="white" stroke="black" stroke-width="3"/>
<path d="M44.9515 65.1371C44.9515 61.4343 45.7743 58.3829 47.42 55.9829C49.1343 53.5143 51.6029 50.84 54.8258 47.96C57.2943 45.7657 59.1115 43.88 60.2772 42.3029C61.5115 40.6571 62.1286 38.8057 62.1286 36.7486C62.1286 33.8686 60.9629 31.5371 58.6315 29.7543C56.3 27.9714 53.18 27.08 49.2715 27.08C41.8658 27.08 36.2772 29.72 32.5058 35L22.5286 28.52C25.4772 24.4743 29.2829 21.3886 33.9458 19.2629C38.6086 17.0686 44.0943 15.9714 50.4029 15.9714C58.0829 15.9714 64.1858 17.6514 68.7115 21.0114C73.3058 24.3029 75.6029 28.8629 75.6029 34.6914C75.6029 37.5029 75.1229 39.9714 74.1629 42.0971C73.2715 44.2229 72.1743 46.04 70.8715 47.5486C69.5686 48.9886 67.8543 50.6686 65.7286 52.5886C63.1229 54.92 61.1686 56.9771 59.8658 58.76C58.6315 60.5429 58.0143 62.6686 58.0143 65.1371H44.9515ZM51.5343 89.72C49.1343 89.72 47.1458 88.9657 45.5686 87.4571C44.06 85.88 43.3058 83.96 43.3058 81.6971C43.3058 79.4343 44.06 77.5486 45.5686 76.04C47.1458 74.5314 49.1343 73.7771 51.5343 73.7771C53.8658 73.7771 55.7858 74.5314 57.2943 76.04C58.8715 77.5486 59.66 79.4343 59.66 81.6971C59.66 83.96 58.8715 85.88 57.2943 87.4571C55.7858 88.9657 53.8658 89.72 51.5343 89.72Z" fill="black"/>
</svg>
