<svg width="20" height="20" viewBox="0 0 20 20" fill="none" xmlns="http://www.w3.org/2000/svg">
<rect width="20" height="20" rx="10" fill="#F68C64"/>
<path d="M6.44734 14V5.472H7.74734L9.38534 10.022C9.48934 10.3167 9.58901 10.6157 9.68434 10.919C9.78834 11.2137 9.89234 11.5083 9.99634 11.803H10.0483C10.1523 11.5083 10.2477 11.2137 10.3343 10.919C10.4297 10.6157 10.5293 10.3167 10.6333 10.022L12.2453 5.472H13.5583V14H12.5443V9.307C12.5443 8.92567 12.5617 8.50533 12.5963 8.046C12.631 7.58667 12.6613 7.16633 12.6873 6.785H12.6353L11.9593 8.722L10.3473 13.142H9.63234L8.02034 8.722L7.34434 6.785H7.29234C7.31834 7.16633 7.34434 7.58667 7.37034 8.046C7.40501 8.50533 7.42234 8.92567 7.42234 9.307V14H6.44734Z" fill="white"/>
</svg>
